<?xml version="1.0" encoding="UTF-8"?>
<svg version="1.1" xmlns="http://www.w3.org/2000/svg" width="800" height="800">
<path d="M0 0 C264 0 528 0 800 0 C800 264 800 528 800 800 C536 800 272 800 0 800 C0 536 0 272 0 0 Z " fill="#000000" transform="translate(0,0)"/>
<path d="M0 0 C3.5626581 2.79235365 5.8761886 5.50356581 7.3125 9.8125 C7.41407779 11.96064077 7.45459856 14.11182381 7.46398926 16.26234436 C7.47033787 17.24935141 7.47033787 17.24935141 7.47681475 18.25629801 C7.48985396 20.46652191 7.49586917 22.6767097 7.50195312 24.88696289 C7.50989621 26.47081726 7.51828422 28.05466945 7.52708435 29.63851929 C7.54516354 33.05644662 7.56017316 36.47436907 7.57286072 39.89232063 C7.59313701 45.32272987 7.62079477 50.75308631 7.64953613 56.18345642 C7.70457916 66.76751078 7.7526162 77.35159089 7.79947662 87.9356842 C7.85879279 101.32306944 7.9197527 114.71043985 7.99004889 128.09777254 C8.01345873 132.59780362 8.03504854 137.09782718 8.05213928 141.59788704 C8.08647942 150.51962677 8.13548337 159.44064167 8.24237394 168.36184615 C8.2842593 171.87531996 8.3173701 175.38812911 8.32229614 178.90186691 C8.33260689 182.56245992 8.38050055 186.22053256 8.43945312 189.88061523 C8.43362968 190.9277044 8.42780624 191.97479357 8.42180634 193.05361271 C8.47830913 198.16263518 8.47830913 198.16263518 10.6401825 202.63987923 C14.12597898 205.8038513 17.91660307 207.30726989 22.3125 208.8125 C23.13234375 209.36035156 23.9521875 209.90820312 24.796875 210.47265625 C29.39389311 212.92106807 34.04404428 212.08152183 38.90283203 210.71801758 C44.53033902 208.55857174 49.03347053 205.99536428 52.3125 200.8125 C55.18098672 189.63467092 53.9112094 177.51600702 53.31530762 166.10333252 C52.9802285 159.27805565 52.82104527 152.4454942 52.63388443 145.61490822 C52.55598678 143.23884974 52.44239405 140.8667908 52.3210144 138.49259949 C52.26172612 137.0324319 52.20272058 135.5722528 52.14404297 134.11206055 C52.08086884 132.84396042 52.0176947 131.57586029 51.9526062 130.26933289 C52.46355541 125.3615906 54.77082321 122.52547421 58 118.9375 C61.7165597 117.12944393 65.26762709 117.17457377 69.3125 117.8125 C72.5199813 119.44539957 74.56201516 120.74037879 76.625 123.6875 C78.07180942 128.15945639 78.43952378 132.68334883 78.51782227 137.35888672 C78.53776749 138.41953339 78.55771271 139.48018005 78.57826233 140.57296753 C78.60333107 142.26548141 78.60333107 142.26548141 78.62890625 143.9921875 C78.64968735 145.1600882 78.67046844 146.32798889 78.69187927 147.53128052 C78.75709175 151.24996238 78.81612801 154.96871289 78.875 158.6875 C78.91821213 161.21354867 78.96182728 163.73959049 79.00585938 166.265625 C79.11274408 172.44784478 79.21456236 178.63013236 79.3125 184.8125 C82.64265112 182.91533053 85.97179797 181.01640534 89.30078125 179.1171875 C90.23378052 178.58569092 91.16677979 178.05419434 92.12805176 177.5065918 C99.30392466 173.41102471 106.40752345 169.21071334 113.47241211 164.92700195 C121.28292878 160.19633875 129.14515643 155.55792889 137.03018188 150.95278931 C148.12356839 144.47175291 159.16968484 137.91857101 170.17431641 131.28759766 C178.46381367 126.30110316 186.80589084 121.40879281 195.1730957 116.55395508 C202.7500256 112.15622148 210.28552501 107.69877703 217.7265625 103.07421875 C219.13001696 102.21583286 220.53366067 101.35775631 221.9375 100.5 C222.63617188 100.05849609 223.33484375 99.61699219 224.0546875 99.16210938 C228.90120083 96.23176382 232.62791419 95.02974532 238.3125 94.8125 C242.20566622 96.08526588 243.97746599 97.43338257 246.6875 100.5 C248.6186671 104.43660986 249.34030687 107.56036352 248.3125 111.8125 C244.86563541 118.97257781 236.74217846 122.28113227 230.0703125 125.86132812 C227.57844554 127.20970502 225.13269466 128.6315054 222.6875 130.0625 C221.718125 130.6296875 220.74875 131.196875 219.75 131.78125 C209.4654325 137.85849443 199.22589546 144.01112473 189.05175781 150.27148438 C182.7291443 154.16108539 176.39850518 157.94757416 169.84765625 161.4453125 C160.64919532 166.40596169 151.75765933 171.9430003 142.80786133 177.33398438 C137.92691779 180.26704737 133.02222664 183.13985099 128.0625 185.9375 C122.28628585 189.20320411 116.67795946 192.68958857 111.07250977 196.23608398 C106.44864342 199.14594549 101.74189617 201.81132091 96.9140625 204.37109375 C93.06809901 206.50196541 89.40128336 208.89141044 85.72265625 211.296875 C83.62563692 212.61558408 81.53369632 213.7252134 79.3125 214.8125 C76.81563423 229.57830414 76.81563423 229.57830414 81.06445312 243.13964844 C86.99965007 248.14795767 94.32163582 251.90954229 102.16796875 251.71875 C105.18040304 250.85057018 107.07572547 249.9900809 109.5625 248.125 C112.76886279 245.84707896 115.96310334 243.84545104 119.4375 242 C124.37123386 239.35960174 129.17434839 236.53585873 133.95996094 233.6394043 C140.99172576 229.3872901 148.07619068 225.2251832 155.16333008 221.06616211 C156.07622803 220.52870361 156.98912598 219.99124512 157.9296875 219.4375 C159.16114502 218.71433594 159.16114502 218.71433594 160.41748047 217.9765625 C162.25123725 216.95123075 162.25123725 216.95123075 163.3125 215.8125 C167.38202759 215.27602744 171.52746595 214.92353882 175.2734375 216.7890625 C177.40975508 218.48769551 179.02771025 220.20223624 180.1875 222.6875 C180.249375 223.739375 180.249375 223.739375 180.3125 224.8125 C180.395 225.92625 180.4775 227.04 180.5625 228.1875 C180.27943056 232.29200686 179.46498317 234.32259528 177.3125 237.8125 C174.4921875 239.97265625 174.4921875 239.97265625 171.1875 241.875 C170.60202393 242.21805176 170.01654785 242.56110352 169.41333008 242.91455078 C165.60972489 245.12970521 161.74634031 247.23875158 157.87890625 249.33984375 C154.33329038 251.37439045 150.89257563 253.56615793 147.4375 255.75 C141.18565539 259.69976625 134.87343754 263.39302832 128.3125 266.8125 C128.3125 267.4725 128.3125 268.1325 128.3125 268.8125 C134.1520486 272.0072831 140.00153223 275.1804489 145.875 278.3125 C150.62131241 280.86217196 155.25302324 283.54239848 159.8515625 286.34765625 C162.47070696 287.90667081 165.12973714 289.36591218 167.8125 290.8125 C171.3687298 292.73046663 174.85948697 294.71446677 178.3125 296.8125 C183.55215947 299.99106119 188.91636484 302.9098037 194.3125 305.8125 C200.01766275 308.88640234 205.67394883 312.0089801 211.25 315.3125 C215.18358028 317.62905437 219.14379091 319.75632743 223.25 321.75 C228.74876396 324.4456131 233.89910725 327.55127542 239.0859375 330.80078125 C245.78684253 334.9787063 252.62420507 338.91803827 259.5625 342.6875 C260.44550781 343.16960937 261.32851563 343.65171875 262.23828125 344.1484375 C263.91709402 345.05717224 265.597691 345.96274903 267.28662109 346.85253906 C269.44841445 347.99261886 271.59927819 349.15169281 273.75 350.3125 C274.43674805 350.66812012 275.12349609 351.02374023 275.83105469 351.39013672 C280.31327026 353.83488096 282.88798828 356.1574375 285.3125 360.8125 C286.22792145 364.60045084 286.18102202 368.22131462 284.2890625 371.6875 C281.62612013 375.04442129 279.44451903 376.51419484 275.20117188 377.10791016 C267.71361084 377.47503633 263.06358526 375.0932741 256.8125 371.1875 C255.93980469 370.66542969 255.06710937 370.14335937 254.16796875 369.60546875 C251.53725525 368.02704065 248.92472362 366.42129959 246.3125 364.8125 C238.67088387 360.17897469 238.67088387 360.17897469 230.875 355.8125 C229.95203125 355.31363281 229.0290625 354.81476563 228.078125 354.30078125 C227.16546875 353.80964844 226.2528125 353.31851562 225.3125 352.8125 C217.06586112 348.35181806 208.88383427 343.78115274 200.72021484 339.17089844 C198.07141768 337.67648479 195.42049316 336.18588248 192.76953125 334.6953125 C183.13492697 329.27096995 173.54364828 323.79432387 164.04467773 318.13574219 C159.16578996 315.25327696 154.17509336 312.70869119 149.07421875 310.23828125 C145.33813654 308.30946936 141.8618564 306.05738902 138.37109375 303.71875 C134.75360182 301.4641701 131.03055773 299.45907017 127.2800293 297.43554688 C124.3713296 295.84467599 121.50230318 294.19831892 118.63671875 292.53125 C117.70666016 292.00015625 116.77660156 291.4690625 115.81835938 290.921875 C113.91120753 289.83282918 112.01291022 288.72815357 110.12304688 287.609375 C104.87746798 284.49553225 104.87746798 284.49553225 98.9921875 284.25390625 C98.10789062 284.76824219 97.22359375 285.28257812 96.3125 285.8125 C95.38308594 286.34746094 94.45367187 286.88242187 93.49609375 287.43359375 C92.58988281 288.03300781 91.68367188 288.63242187 90.75 289.25 C85.36226692 292.78832683 85.36226692 292.78832683 82.70385742 294.07958984 C80.1033126 295.5989092 80.1033126 295.5989092 79.53857422 298.32104492 C78.23754913 311.74245249 78.23754913 311.74245249 82.55859375 323.85546875 C85.36652385 325.53307285 88.11906413 326.80473997 91.18505859 327.93554688 C95.33855611 329.64766107 99.09575435 332.12714057 102.9375 334.4375 C110.5803397 338.87036204 118.29751572 343.15048453 126.1015625 347.29296875 C144.19764773 356.98908053 144.19764773 356.98908053 147.3125 362.8125 C148.05605218 366.65895262 148.21064506 370.13690922 146.32421875 373.65625 C144.08844851 376.48038082 141.78308321 378.79174023 138.3125 379.8125 C132.7698804 380.2254581 129.5845626 379.32752458 124.77734375 376.59375 C123.87647789 376.089505 123.87647789 376.089505 122.95741272 375.57507324 C121.04677465 374.50129913 119.14854363 373.40748752 117.25 372.3125 C116.00402123 371.60801845 114.75728051 370.90488275 113.50976562 370.203125 C110.39313218 368.44516256 107.28690405 366.66973202 104.18426514 364.88720703 C101.66778978 363.44232823 99.14763743 362.00392453 96.62757874 360.56530762 C93.85510177 358.98240983 91.08391937 357.39724856 88.3125 355.8125 C87.0787543 355.1074205 85.84498444 354.40238328 84.6111908 353.6973877 C83.52262283 353.07537476 82.43405487 352.45336182 81.3125 351.8125 C81.31618717 352.72433359 81.31987434 353.63616718 81.32367325 354.5756321 C81.4119982 376.75924562 81.47819695 398.94282886 81.51974869 421.12658119 C81.54037673 431.85447122 81.56850204 442.58224389 81.61425781 453.31005859 C81.65411806 462.66007419 81.67993105 472.01000481 81.68885398 481.36010301 C81.69407008 486.31125748 81.70633498 491.26216882 81.73542023 496.21324539 C81.76257643 500.87371979 81.77094456 505.53385097 81.76493073 510.19439697 C81.76603087 511.90443156 81.77398359 513.61447766 81.7893219 515.32444382 C81.80925363 517.6611846 81.80442844 519.99663324 81.79351807 522.33340454 C81.79720524 523.64050699 81.80089241 524.94760944 81.80469131 526.29432106 C81.22703158 530.42342749 79.89658173 532.58148542 77.3125 535.8125 C73.30118867 538.56878719 69.00715063 538.341593 64.3125 537.8125 C60.94082928 536.49315059 59.69605207 535.39967914 57.7243042 532.38113403 C55.79230883 527.49760668 55.71904366 523.05294489 55.59863281 517.83935547 C55.54720564 516.14730893 55.54720564 516.14730893 55.49473953 514.42107964 C55.14220552 500.37891933 55.41009592 486.33513284 55.62470365 472.29274309 C55.78853618 461.27652398 55.84812284 450.25945273 55.91082716 439.24226785 C55.97191776 428.56408612 56.06737327 417.88894379 56.26904297 407.21240234 C56.43047119 398.6556894 56.51729563 390.10189219 56.51672101 381.54360378 C56.51909523 377.03576683 56.55774625 372.53520702 56.68746185 368.02908707 C57.95252025 350.18465787 57.95252025 350.18465787 52.22407532 334.08675385 C46.86951257 329.42195068 40.36779475 325.98182515 33.3125 324.8125 C28.69537645 325.36206649 25.70654125 327.23434018 21.8125 329.75 C18.03084027 332.18422256 14.50665304 334.20856552 10.3125 335.8125 C10.32249275 337.20525398 10.32249275 337.20525398 10.33268738 338.62614441 C10.39282336 347.38066514 10.43848711 356.13511639 10.46793652 364.88979626 C10.48358579 369.39056911 10.50481054 373.89117115 10.53881836 378.3918457 C10.57143821 382.73606862 10.58935857 387.08012733 10.59713173 391.42446327 C10.60267053 393.08105364 10.61348652 394.73763512 10.62969017 396.3941555 C10.6514997 398.71633632 10.65446551 401.0378405 10.65307617 403.36010742 C10.663862 404.04343643 10.67464783 404.72676544 10.6857605 405.43080139 C10.65782123 409.75268918 9.83840708 412.32135504 7.3125 415.8125 C6.796875 416.575625 6.28125 417.33875 5.75 418.125 C1.83146464 420.83783217 -2.08660241 420.64704767 -6.6875 419.8125 C-10.31248909 418.07398482 -12.30349605 415.75735925 -13.82955933 412.00241089 C-14.68937342 408.80553443 -14.92922122 406.19977356 -14.91455078 402.89892578 C-14.91432419 401.18783127 -14.91432419 401.18783127 -14.91409302 399.44216919 C-14.90377045 398.22633148 -14.89344788 397.01049377 -14.8828125 395.7578125 C-14.8799826 394.50112762 -14.87715271 393.24444275 -14.87423706 391.94967651 C-14.86496123 388.62549136 -14.84702381 385.30158576 -14.8248291 381.97747803 C-14.80428812 378.57875979 -14.79521778 375.18001256 -14.78515625 371.78125 C-14.76313379 365.12492333 -14.72968433 358.46872779 -14.6875 351.8125 C-16.45695189 352.77173265 -18.22569707 353.73226902 -19.99414062 354.69335938 C-20.97918579 355.2281189 -21.96423096 355.76287842 -22.97912598 356.31384277 C-25.79547271 357.87224584 -28.50420792 359.5352546 -31.1875 361.3125 C-34.60568885 363.52257723 -38.03176822 365.58846796 -41.625 367.5 C-47.73613387 370.77196686 -53.64714792 374.35256926 -59.58105469 377.93188477 C-68.72152642 383.44434165 -77.91074284 388.87264809 -87.10693359 394.29150391 C-89.52656464 395.71764406 -91.94506859 397.1456753 -94.36328125 398.57421875 C-100.90225911 402.43310905 -107.45466187 406.26012512 -114.0625 410 C-119.20893486 412.92397674 -124.2065128 416.01676667 -129.17578125 419.23046875 C-132.17877409 421.12193391 -135.26482807 422.81176167 -138.3828125 424.50390625 C-141.0077095 425.99431387 -143.52862005 427.60979726 -146.0625 429.25 C-150.6890679 432.22839364 -155.3982918 434.95070528 -160.26171875 437.5234375 C-162.14241562 438.52284163 -163.9862556 439.59175336 -165.8125 440.6875 C-169.84322406 442.26473985 -173.42328277 442.6501141 -177.6875 441.8125 C-180.75398634 440.08760144 -183.09035131 438.00679738 -184.6875 434.8125 C-184.9609375 432.640625 -184.9609375 432.640625 -185.0625 430.0625 C-185.11148438 429.22203125 -185.16046875 428.3815625 -185.2109375 427.515625 C-184.34630431 423.05050433 -181.6384671 420.17060369 -178.00195312 417.63916016 C-176.11308203 416.52814941 -174.19743734 415.50466586 -172.25 414.5 C-166.80767049 411.57394239 -161.53454287 408.52606586 -156.375 405.125 C-151.5480143 401.95931086 -146.64327331 399.08522338 -141.546875 396.375 C-138.31079607 394.60665086 -135.153144 392.72301726 -132 390.8125 C-125.51852701 386.88956972 -118.98710536 383.0580091 -112.4375 379.25 C-103.51766956 374.06074576 -94.62414582 368.82932381 -85.75 363.5625 C-85.17444366 363.22091858 -84.59888733 362.87933716 -84.00588989 362.52740479 C-82.30340455 361.51696981 -80.60092101 360.50653181 -78.8984375 359.49609375 C-73.24201445 356.13924456 -67.5762531 352.79870087 -61.90454102 349.46777344 C-58.05451945 347.20611643 -54.2074539 344.93955631 -50.36328125 342.66796875 C-49.43185303 342.11947266 -48.5004248 341.57097656 -47.54077148 341.00585938 C-45.6486911 339.88294763 -43.76392433 338.74761404 -41.88696289 337.59960938 C-37.51283473 334.94390247 -33.27421639 332.55398225 -28.5078125 330.67578125 C-21.77711587 327.8679092 -21.77711587 327.8679092 -16.6875 322.8125 C-13.67988283 314.53938174 -13.46147594 305.04223758 -16.6875 296.8125 C-21.34335387 290.99299381 -28.51871321 287.51666095 -35.6875 285.8125 C-42.28122444 285.64399371 -46.98157115 289.0258117 -52.375 292.4375 C-54.1585048 293.53832664 -55.94235754 294.63858978 -57.7265625 295.73828125 C-58.5815332 296.27018066 -59.43650391 296.80208008 -60.31738281 297.35009766 C-63.26347118 299.16788395 -66.24707791 300.90285177 -69.25 302.625 C-72.98161151 304.78430329 -76.62873685 307.03541988 -80.25 309.375 C-84.84375453 312.33527142 -89.54840545 314.9901606 -94.375 317.55078125 C-96.84970242 318.85677468 -96.84970242 318.85677468 -99.6875 320.8125 C-104.4768401 321.59344579 -109.53480558 322.11680288 -113.80859375 319.52734375 C-116.65877714 316.52679097 -118.03687551 313.83948087 -118.25 309.6875 C-117.42261373 303.98772794 -115.71139872 301.45643771 -111.20703125 298.05078125 C-106.46650812 294.5511378 -101.46766721 291.57883743 -96.375 288.625 C-95.4252832 288.06981689 -94.47556641 287.51463379 -93.49707031 286.94262695 C-91.53561223 285.79713934 -89.57287876 284.65383288 -87.60888672 283.51269531 C-84.76650377 281.85847879 -81.93131493 280.19254446 -79.09765625 278.5234375 C-77.37783398 277.51523288 -75.65779231 276.50740238 -73.9375 275.5 C-73.13401123 275.02602783 -72.33052246 274.55205566 -71.50268555 274.0637207 C-70.76445557 273.63406006 -70.02622559 273.20439941 -69.265625 272.76171875 C-68.29737793 272.19457153 -68.29737793 272.19457153 -67.30957031 271.6159668 C-65.6875 270.8125 -65.6875 270.8125 -63.6875 270.8125 C-63.6875 270.1525 -63.6875 269.4925 -63.6875 268.8125 C-64.6775 268.44125 -64.6775 268.44125 -65.6875 268.0625 C-72.76477666 265.11363472 -79.37476736 261.33732033 -86 257.5 C-94.49855297 252.60854743 -103.04705168 247.81271486 -111.625 243.0625 C-134.0025008 230.66296004 -134.0025008 230.66296004 -143.875 224.6875 C-147.10790191 222.73198005 -150.37249664 220.86862372 -153.6953125 219.0703125 C-172.07832962 209.08337755 -190.27653335 198.82134952 -208.30419922 188.20678711 C-210.43095832 186.96258293 -212.56714048 185.73795984 -214.7109375 184.5234375 C-221.07191039 180.86713025 -221.07191039 180.86713025 -222.2890625 176.8046875 C-223.01121712 172.6275186 -222.98693598 169.64280922 -220.9375 165.875 C-218.6875 162.8125 -218.6875 162.8125 -215.6875 160.8125 C-213.671875 160.51171875 -213.671875 160.51171875 -211.4375 160.5 C-210.71046875 160.48324219 -209.9834375 160.46648437 -209.234375 160.44921875 C-203.27944458 161.29861833 -198.05416254 164.63635034 -192.9375 167.625 C-191.70624961 168.33943934 -190.47447282 169.05297222 -189.2421875 169.765625 C-188.33871582 170.28866211 -188.33871582 170.28866211 -187.41699219 170.82226562 C-184.98704778 172.21354944 -182.52709512 173.54626176 -180.0625 174.875 C-176.28007957 176.91805921 -172.57024974 179.0533522 -168.875 181.25 C-164.58032507 183.78019608 -160.22975014 186.06475603 -155.75 188.25 C-149.85021775 191.14791066 -144.31367405 194.41886098 -138.75390625 197.91796875 C-135.16393496 200.13597649 -131.48490215 202.12704797 -127.765625 204.1171875 C-123.85795537 206.26938118 -120.02501293 208.53820061 -116.1875 210.8125 C-109.75793727 214.61838405 -103.27712991 218.289231 -96.6875 221.8125 C-89.93449693 225.44873242 -83.27428252 229.20671155 -76.66015625 233.08984375 C-72.0538413 235.75920629 -67.37379974 238.28703011 -62.6875 240.8125 C-60.87399611 241.78980613 -59.06150108 242.76898652 -57.25 243.75 C-55.90421875 244.47703125 -55.90421875 244.47703125 -54.53125 245.21875 C-50.38063903 247.54491659 -46.34693679 250.06204097 -42.31640625 252.58984375 C-39.28537022 253.99952321 -38.73437727 253.85766217 -35.6875 252.8125 C-34.30440273 252.10971697 -32.94667767 251.35554227 -31.61328125 250.5625 C-30.86369141 250.1190625 -30.11410156 249.675625 -29.34179688 249.21875 C-28.56900391 248.7546875 -27.79621094 248.290625 -27 247.8125 C-26.21560547 247.3484375 -25.43121094 246.884375 -24.62304688 246.40625 C-20.95032713 244.38457453 -20.95032713 244.38457453 -17.6875 241.8125 C-17.60001793 239.88582493 -17.58052666 237.95598139 -17.58984375 236.02734375 C-17.59306641 234.85751953 -17.59628906 233.68769531 -17.59960938 232.48242188 C-17.60798828 231.25072266 -17.61636719 230.01902344 -17.625 228.75 C-17.63176758 226.89665039 -17.63176758 226.89665039 -17.63867188 225.00585938 C-17.65050392 221.94135883 -17.66698827 218.87695279 -17.6875 215.8125 C-18.41638428 215.41047363 -19.14526855 215.00844727 -19.89624023 214.59423828 C-23.30716431 212.71107078 -26.71662074 210.82526826 -30.125 208.9375 C-30.74085968 208.59647247 -31.35671936 208.25544495 -31.99124146 207.90408325 C-40.11603235 203.40082772 -48.17784715 198.81140145 -56.14794922 194.03857422 C-60.10250851 191.68815714 -64.10306935 189.56393427 -68.25 187.5625 C-74.66696626 184.4333475 -81.95636612 180.81103057 -84.6875 173.8125 C-85.22973844 169.55205513 -84.98815535 167.39153994 -83 163.5625 C-79.75688794 159.7058262 -77.50446481 158.09751409 -72.5 157.3125 C-63.55318414 158.4858529 -55.36709002 164.66688109 -47.75 169.25 C-41.42643806 173.04413716 -35.07782539 176.74650358 -28.58374023 180.24243164 C-26.04897549 181.61654207 -23.52626959 183.00932853 -21.00648499 184.41062927 C-20.19730653 184.86052436 -19.38812807 185.31041945 -18.55442905 185.77394772 C-17.93834247 186.11666997 -17.32225588 186.45939222 -16.6875 186.8125 C-16.7029612 185.69300823 -16.7029612 185.69300823 -16.71873474 184.55090046 C-16.97137508 166.24807741 -17.22177875 147.94522495 -17.46980286 129.64233875 C-17.58980556 120.79059695 -17.71051894 111.93886598 -17.83300781 103.0871582 C-17.93997773 95.35679526 -18.04551 87.62641413 -18.14943409 79.89600962 C-18.20432187 75.81667848 -18.25984887 71.73735868 -18.31710815 67.65806007 C-18.33895919 66.09469775 -18.36077959 64.531335 -18.38256836 62.9679718 C-18.39321288 62.20533289 -18.4038574 61.44269399 -18.41482449 60.65694481 C-18.49497294 54.80074309 -18.55527287 48.94445766 -18.61010838 43.0879702 C-18.65331658 38.88089129 -18.7325909 34.67625928 -18.83996296 30.47034222 C-18.88916156 28.43568411 -18.92731968 26.40115008 -18.96116638 24.36618328 C-19.00388578 21.8847919 -19.06525169 19.40361879 -19.14930725 16.92328358 C-19.23855215 9.80889658 -18.58486541 6.0863046 -13.6875 0.8125 C-9.63184467 -2.29683575 -4.53944458 -2.00580109 0 0 Z " fill="#86C2E9" transform="translate(230.6875,141.1875)"/>
<path d="M0 0 C63.36 0 126.72 0 192 0 C189.54714919 2.45285081 188.05320113 2.58586519 184.6875 3.3125 C163.35599645 8.49918263 146.8113516 20.39278476 134.4375 38.61328125 C131.20662326 43.97759019 129.62494477 47.76794195 129.61688995 54.1134758 C129.61193044 54.80963611 129.60697092 55.50579642 129.60186112 56.2230525 C129.58890962 58.55536177 129.59728801 60.8870981 129.60559082 63.21942139 C129.60070168 64.90864507 129.59451177 66.59786541 129.58713293 68.28708005 C129.57071288 72.92891328 129.57305556 77.5705769 129.5785079 82.21242905 C129.58117558 87.21871786 129.56665112 92.22496121 129.55441284 97.23123169 C129.5333448 107.03964123 129.52881881 116.84799167 129.53060073 126.65642115 C129.53190779 134.62912176 129.52810703 142.60180391 129.52067566 150.57450104 C129.51857648 152.87011377 129.51647888 155.1657265 129.51438284 157.46133924 C129.51333931 158.60390342 129.51229578 159.7464676 129.51122063 160.92365494 C129.49231233 182.53964645 129.49337012 204.15560404 129.50018996 225.7716004 C129.50576445 245.54562102 129.48494503 265.31951204 129.45182949 285.09350237 C129.41809346 305.39555457 129.40292415 325.69754469 129.40754652 345.99962544 C129.40979148 357.39838574 129.40454431 368.79702628 129.37965393 380.19576263 C129.35864185 389.90112762 129.35504786 399.60630721 129.37395352 409.31167981 C129.38311229 414.26283602 129.38424997 419.21364655 129.36359787 424.16477585 C129.3448898 428.70004706 129.3493895 433.23468945 129.37214369 437.76993671 C129.3763299 439.40787961 129.37212867 441.0458707 129.35854775 442.68376264 C129.28793575 451.8245314 129.77827206 459.13520725 135 467 C135.64582031 468.02351563 136.29164063 469.04703125 136.95703125 470.1015625 C150.58509585 488.63573036 167.43188789 497.2581005 189 504 C189 504.33 189 504.66 189 505 C127.29 505 65.58 505 2 505 C5.07800818 502.94799455 7.39650167 502.22860318 10.9375 501.25 C32.17247798 494.8066069 47.06500663 481.27256737 59 463 C59.52849778 462.255737 60.05699557 461.511474 60.60150844 460.74465758 C62.35689303 457.29956734 62.38153458 454.86073645 62.39148998 450.99954128 C62.39734829 450.30344563 62.40320659 449.60734999 62.40924242 448.89016053 C62.4252338 446.55204995 62.41986393 444.21447983 62.41459656 441.87632751 C62.42163241 440.18526591 62.42995954 438.49420927 62.43946868 436.80315977 C62.4617355 432.15154371 62.46517123 427.50007409 62.46546924 422.84841168 C62.4689666 417.83319282 62.48957803 412.81803941 62.50779724 407.80285645 C62.54424305 396.83369228 62.55817762 385.86456811 62.56763434 374.89535213 C62.573653 368.04558503 62.58441243 361.19583064 62.59613991 354.34607124 C62.62790179 335.38000361 62.65460297 316.41394728 62.66089153 297.44785213 C62.66129867 296.23385826 62.6617058 295.01986439 62.66212528 293.76908282 C62.66293298 291.30801682 62.6637387 288.84695082 62.66454246 286.38588481 C62.66494804 285.16420933 62.66535362 283.94253384 62.66577148 282.68383789 C62.66617346 281.46067045 62.66657544 280.23750301 62.6669896 278.9772699 C62.67447748 259.16243424 62.71894362 239.34787064 62.7796289 219.53313332 C62.84143751 199.18816058 62.87325124 178.84332337 62.87471896 158.49825484 C62.8762199 147.07584816 62.89045138 135.65377673 62.93753624 124.23145866 C62.97746778 114.50373192 62.98984461 104.77645556 62.96655061 95.04866635 C62.95548042 90.08693383 62.95723375 85.12609696 62.99401855 80.16446877 C63.02741456 75.61702235 63.02349317 71.07115182 62.990553 66.52371616 C62.985113 64.88367679 62.99303896 63.24352355 63.0161018 61.60363733 C63.16319773 50.42355224 61.27560164 43.78754714 54 35 C53.18162253 33.86657084 52.36684552 32.73051567 51.55859375 31.58984375 C38.5808292 15.36166304 20.28868187 4.9912161 0 1 C0 0.67 0 0.34 0 0 Z " fill="#87C4EB" transform="translate(598,120)"/>
<path d="M0 0 C4.83840967 1.16924157 8.47201223 3.27153841 12.67578125 5.87109375 C13.81950195 6.55461914 13.81950195 6.55461914 14.98632812 7.25195312 C20.52851214 10.59882464 20.52851214 10.59882464 22.86328125 12.93359375 C24.20079592 20.97476582 25.47255814 32.79074609 21.015625 39.8671875 C18.36941123 41.6830521 15.85916702 42.79268386 12.86328125 43.93359375 C10.93945112 45.08840968 9.02262758 46.2549849 7.11328125 47.43359375 C4.0380481 49.23822159 2.45949035 49.96087129 -1.125 49.796875 C-4.43313401 48.84862906 -6.73033385 47.5486616 -9.57421875 45.62109375 C-13.67920104 42.86651321 -17.82824079 40.3521074 -22.13671875 37.93359375 C-22.28185677 33.68395248 -22.37073912 29.4349474 -22.44921875 25.18359375 C-22.49111328 23.97703125 -22.53300781 22.77046875 -22.57617188 21.52734375 C-22.59228516 20.3671875 -22.60839844 19.20703125 -22.625 18.01171875 C-22.65118408 16.9434082 -22.67736816 15.87509766 -22.7043457 14.77441406 C-22.13671875 11.93359375 -22.13671875 11.93359375 -19.78051758 9.65576172 C-17.07999157 7.89664172 -14.36394261 6.30935066 -11.51171875 4.80859375 C-2.32467165 -0.04921472 -2.32467165 -0.04921472 0 0 Z " fill="#010203" transform="translate(262.13671875,385.06640625)"/>
<path d="M0 0 C3.08067632 0.70695925 5.97591374 0.65348336 9.13727665 0.65445137 C10.16828335 0.65679136 10.16828335 0.65679136 11.22011846 0.65917861 C13.52239594 0.66316607 15.82460744 0.66000771 18.12688541 0.65686226 C19.77775963 0.65821729 21.42863354 0.65999779 23.07950687 0.66217232 C27.56280706 0.66673421 32.04608426 0.66496228 36.52938485 0.66179323 C41.21784576 0.65926365 45.90630468 0.6616088 50.59476566 0.6631794 C58.46745501 0.66499916 66.34013499 0.66259965 74.21282291 0.65783882 C83.3207633 0.65239469 92.42868131 0.65416074 101.53662115 0.65966523 C109.35154794 0.6641996 117.16646798 0.66484537 124.98139566 0.66222656 C129.65115821 0.66066582 134.32091023 0.66046453 138.99067211 0.66376305 C143.37943351 0.66664651 147.76816598 0.66465728 152.15692425 0.65886879 C153.76983689 0.65754383 155.38275196 0.65793085 156.99566364 0.66013145 C159.19272208 0.66285325 161.38968709 0.65944917 163.58673954 0.65445137 C164.81766866 0.65407434 166.04859777 0.65369732 167.31682777 0.65330887 C170.35322774 0.66253238 170.35322774 0.66253238 173.29851627 -0.47253227 C175.98601627 0.46496773 175.98601627 0.46496773 178.29851627 1.52746773 C178.29851627 1.85746773 178.29851627 2.18746773 178.29851627 2.52746773 C116.58851627 2.52746773 54.87851627 2.52746773 -8.70148373 2.52746773 C-3.46630173 -0.9626536 -3.46630173 -0.9626536 0 0 Z " fill="#7BB4D8" transform="translate(608.7014837265015,622.4725322723389)"/>
<path d="M0 0 C63.36 0 126.72 0 192 0 C189.23776722 2.76223278 186.79293383 2.57856291 183 3 C183 2.67 183 2.34 183 2 C181.62175364 2.00276538 181.62175364 2.00276538 180.21566391 2.00558662 C157.87416592 2.04972609 135.53267543 2.08283729 113.19114304 2.10362434 C102.38701564 2.1139436 91.58291733 2.12801634 80.77880859 2.15087891 C71.36362319 2.1707929 61.94845884 2.18371171 52.53325295 2.18817699 C47.54647227 2.19078774 42.55975183 2.19693764 37.57299042 2.21146011 C32.88140082 2.22501258 28.18989642 2.22922737 23.49828911 2.22621536 C21.77452825 2.22676657 20.0507646 2.2307579 18.32702065 2.23841095 C15.97675851 2.24833569 13.62681963 2.24597799 11.27655029 2.24050903 C9.96022991 2.24235262 8.64390953 2.24419621 7.28770065 2.24609566 C4 2 4 2 0 0 Z " fill="#4B6E83" transform="translate(598,120)"/>
</svg>
